<?xml version="1.0" encoding="UTF-8"?>
<svg id="Layer_1" xmlns="http://www.w3.org/2000/svg" version="1.1" viewBox="0 0 470 50">
  <!-- Generator: Adobe Illustrator 29.0.0, SVG Export Plug-In . SVG Version: 2.1.0 Build 186)  -->
  <defs>
    <style>
      .st0 {
        fill: #1c2126;
      }
    </style>
  </defs>
  <path class="st0" d="M47,8.3l-10.1,33.5h-5.5l-7.3-23.4-7.4,23.4h-5.6L1.1,8.3h6.2l6.6,23.8,7-23.8h6.3l6.8,23.9,6.8-23.9h6.1Z"/>
  <path class="st0" d="M62.6,41.7c-.2-.7-.3-1.6-.4-2.6-.7,1-1.6,1.7-2.8,2.3-1.2.6-2.6.9-4.2.9-2.5,0-4.5-.7-6-2-1.5-1.3-2.2-3.1-2.2-5.4s.7-3.9,2.2-5.2c1.5-1.2,3.5-1.9,6-1.9h6.8v-.9c0-1.4-.4-2.5-1.2-3.2-.8-.7-2-1.1-3.5-1.1-2.6,0-4.5,1.1-5.7,3.3l-3.9-2.3c1.9-3.6,5.2-5.4,9.9-5.4s5.2.7,7,2.2c1.8,1.5,2.8,3.9,2.8,7.1v9c0,2.6.1,4.2.4,4.9h-5.2ZM62.1,31.7h-5.6c-1.3,0-2.3.3-3,.9-.7.6-1.1,1.4-1.1,2.4s.4,1.9,1.1,2.4c.7.6,1.7.8,3.1.8s2.9-.5,3.9-1.5c1-1,1.5-2.5,1.5-4.5v-.5Z"/>
  <path class="st0" d="M72.7,41.7V7.7h5.4v20.8l8.9-9.3h6.8l-9.8,10.2,9.3,12.4h-6.6l-6.3-8.6-2.4,2.5v6.1h-5.4Z"/>
  <path class="st0" d="M116.6,32.4h-17.3c.2,1.7.8,3,1.9,3.9s2.5,1.3,4.2,1.3c2.8,0,4.7-1.1,5.8-3.4l4.5,1.8c-.9,2-2.2,3.5-4,4.7-1.8,1.1-3.9,1.7-6.3,1.7s-6.1-1.1-8.1-3.3c-2.1-2.2-3.1-5.1-3.1-8.6s1-6.4,3.1-8.7c2.1-2.2,4.8-3.3,8.2-3.3s6,1.1,8,3.3c2,2.2,3,5.1,3,8.7v2ZM99.3,28.6h11.7c-.1-1.8-.7-3.2-1.7-4.2-1-1-2.4-1.4-4.1-1.4s-3.1.5-4.1,1.5c-1.1,1-1.7,2.4-1.9,4.2Z"/>
  <path class="st0" d="M177,8.3l-10.1,33.5h-5.5l-7.3-23.4-7.4,23.4h-5.6l-10-33.5h6.2l6.6,23.8,7-23.8h6.3l6.8,23.9,6.8-23.9h6.1Z"/>
  <path class="st0" d="M188.9,18.5c3.5,0,6.3,1.1,8.5,3.3,2.2,2.2,3.3,5.1,3.3,8.6s-1.1,6.3-3.3,8.5-5,3.3-8.5,3.3-6.3-1.1-8.5-3.3-3.3-5.1-3.3-8.5,1.1-6.4,3.3-8.6c2.2-2.2,5-3.3,8.5-3.3ZM188.9,37.4c1.8,0,3.4-.7,4.5-2,1.2-1.3,1.7-3,1.7-5.1s-.6-3.8-1.7-5.1c-1.2-1.3-2.7-1.9-4.5-1.9s-3.4.6-4.6,1.9c-1.2,1.3-1.7,3-1.7,5.1s.6,3.8,1.7,5.1c1.2,1.3,2.7,2,4.6,2Z"/>
  <path class="st0" d="M216.4,18.8c1,0,1.9.1,2.7.3v5c-.9-.2-1.7-.3-2.5-.3-1.9,0-3.4.6-4.5,1.8-1.1,1.2-1.6,2.8-1.6,5v11.2h-5.5v-22.6h5l.3,2.7c.4-1,1.2-1.7,2.3-2.2s2.3-.8,3.8-.8Z"/>
  <path class="st0" d="M239.9,41.7c-.2-1.5-.3-2.5-.4-3-.7,1.1-1.8,2-3.1,2.7s-2.9,1-4.5,1c-3.3,0-6-1.1-8.1-3.2s-3.1-5-3.1-8.8,1.1-6.4,3.2-8.6c2.1-2.2,4.9-3.3,8.2-3.3s2.9.3,4.2.9,2.4,1.4,3.2,2.4V7.7h5.4v28.4c0,.8,0,1.9.1,3.2,0,1.3.2,2.1.3,2.5h-5.4ZM237.4,35.4c1.2-1.3,1.8-3,1.8-5.1s-.6-3.8-1.8-5.1c-1.2-1.3-2.8-1.9-4.7-1.9s-3.5.6-4.7,1.9c-1.2,1.3-1.8,3-1.8,5.1s.6,3.8,1.8,5.1c1.2,1.3,2.8,1.9,4.7,1.9s3.5-.6,4.7-1.9Z"/>
  <path class="st0" d="M287.1,19.3c-.6-1.9-1.7-3.4-3.2-4.5-1.5-1.1-3.3-1.6-5.5-1.6-3.1,0-5.6,1.1-7.5,3.2-1.9,2.2-2.8,5-2.8,8.5s.9,6.4,2.8,8.5c1.9,2.1,4.3,3.2,7.4,3.2s4.1-.5,5.8-1.6,2.8-2.5,3.5-4.2l5.3,2.3c-1.1,2.8-3,5.1-5.6,6.7-2.6,1.6-5.6,2.4-9,2.4s-6-.7-8.4-2.1c-2.4-1.4-4.3-3.4-5.7-6-1.3-2.6-2-5.6-2-9s.4-4.9,1.2-7.1,1.9-4,3.3-5.5c1.4-1.5,3.1-2.7,5.1-3.5,2-.8,4.2-1.3,6.6-1.3,3.5,0,6.6.9,9.1,2.7,2.6,1.8,4.2,4.2,5.1,7.1l-5.5,1.8Z"/>
  <path class="st0" d="M308,18.5c3.5,0,6.3,1.1,8.5,3.3,2.2,2.2,3.3,5.1,3.3,8.6s-1.1,6.3-3.3,8.5c-2.2,2.2-5,3.3-8.5,3.3s-6.3-1.1-8.5-3.3-3.3-5.1-3.3-8.5,1.1-6.4,3.3-8.6c2.2-2.2,5-3.3,8.5-3.3ZM308,37.4c1.8,0,3.4-.7,4.5-2,1.2-1.3,1.7-3,1.7-5.1s-.6-3.8-1.7-5.1c-1.2-1.3-2.7-1.9-4.5-1.9s-3.4.6-4.6,1.9c-1.2,1.3-1.7,3-1.7,5.1s.6,3.8,1.7,5.1c1.2,1.3,2.7,2,4.6,2Z"/>
  <path class="st0" d="M324.1,7.7h5.4v34.1h-5.4V7.7Z"/>
  <path class="st0" d="M335.1,7.7h5.4v34.1h-5.4V7.7Z"/>
  <path class="st0" d="M367.2,32.4h-17.3c.2,1.7.8,3,1.9,3.9s2.5,1.3,4.2,1.3c2.8,0,4.7-1.1,5.8-3.4l4.5,1.8c-.8,2-2.2,3.5-4,4.7-1.8,1.1-3.9,1.7-6.3,1.7s-6.1-1.1-8.1-3.3c-2.1-2.2-3.1-5.1-3.1-8.6s1-6.4,3.1-8.7,4.8-3.3,8.2-3.3,6,1.1,8,3.3c2,2.2,3,5.1,3,8.7v2ZM350,28.6h11.7c-.1-1.8-.7-3.2-1.7-4.2-1-1-2.4-1.4-4.1-1.4s-3.1.5-4.1,1.5c-1.1,1-1.7,2.4-1.9,4.2Z"/>
  <path class="st0" d="M382,18.5c2.6,0,4.8.6,6.7,1.9,1.9,1.3,3.1,3,3.8,5.1l-4.7,1.9c-.4-1.2-1.1-2.2-2.1-2.9-1-.7-2.2-1.1-3.5-1.1-1.9,0-3.4.6-4.6,1.9-1.1,1.3-1.7,3-1.7,5.1s.6,3.9,1.7,5.1c1.1,1.2,2.6,1.9,4.6,1.9s2.6-.3,3.6-1c1-.7,1.7-1.6,2.1-2.8l4.6,1.7c-.8,2.2-2.1,3.9-4,5.1-1.9,1.3-4.1,1.9-6.5,1.9s-6.2-1.1-8.3-3.3c-2.1-2.2-3.2-5.1-3.2-8.6s1.1-6.5,3.2-8.7c2.1-2.2,4.9-3.3,8.4-3.3Z"/>
  <path class="st0" d="M418,41.7h-5.4v-18.1h-8.1v18.1h-5.3v-18.1h-4.4v-4.5h4.4v-7h5.3v7h13.6v22.6ZM412.9,13.8c-.7-.7-1-1.5-1-2.5s.3-1.8,1-2.5c.6-.6,1.5-1,2.4-1s1.8.3,2.5,1,1,1.5,1,2.5-.3,1.8-1,2.4c-.7.7-1.5,1-2.5,1s-1.7-.3-2.4-1Z"/>
  <path class="st0" d="M445.4,19.1l-9.4,22.6h-5.4l-9-22.6h5.9l6,16.2,6.4-16.2h5.6Z"/>
  <path class="st0" d="M468.9,32.4h-17.3c.2,1.7.8,3,1.9,3.9s2.5,1.3,4.2,1.3c2.8,0,4.7-1.1,5.8-3.4l4.5,1.8c-.8,2-2.2,3.5-4,4.7-1.8,1.1-3.9,1.7-6.3,1.7s-6.1-1.1-8.1-3.3c-2.1-2.2-3.1-5.1-3.1-8.6s1-6.4,3.1-8.7,4.8-3.3,8.2-3.3,6,1.1,8,3.3c2,2.2,3,5.1,3,8.7v2ZM451.7,28.6h11.7c-.1-1.8-.7-3.2-1.7-4.2-1-1-2.4-1.4-4.1-1.4s-3.1.5-4.1,1.5c-1.1,1-1.7,2.4-1.9,4.2Z"/>
</svg>