<?xml version="1.0" encoding="UTF-8"?>
<svg id="Layer_1" data-name="Layer 1" xmlns="http://www.w3.org/2000/svg" xmlns:xlink="http://www.w3.org/1999/xlink" viewBox="0 0 398.88 40.33">
  <defs>
    <style>
      .cls-1 {
        fill: #18bcf2;
      }

      .cls-2 {
        fill: none;
      }

      .cls-3 {
        fill: #1c2126;
      }

      .cls-4 {
        clip-path: url(#clippath-1);
      }

      .cls-5 {
        fill: #f2f4f9;
      }

      .cls-6 {
        clip-path: url(#clippath);
      }
    </style>
    <clipPath id="clippath">
      <rect class="cls-2" width="40.33" height="40.33"/>
    </clipPath>
    <clipPath id="clippath-1">
      <circle class="cls-2" cx="20.17" cy="25.43" r="14.9"/>
    </clipPath>
  </defs>
  <g>
    <path class="cls-3" d="M85.59,7.71l-7.5,24.68h-4.49l-5.05-16.51-5.21,16.51h-4.49l-7.4-24.68h5.05l4.64,16.74,4.88-16.74h5.1l4.74,16.81,4.82-16.81h4.92Z"/>
    <path class="cls-3" d="M96.84,32.39c-.1-.53-.18-1.1-.25-1.71-.47.65-1.14,1.17-2,1.56-.86.39-1.84.59-2.95.59-1.82,0-3.29-.49-4.4-1.46-1.11-.98-1.67-2.3-1.67-3.96s.54-2.95,1.62-3.87c1.08-.93,2.56-1.39,4.45-1.39h4.85v-.56c0-.96-.29-1.68-.87-2.15-.58-.47-1.39-.71-2.43-.71-1.84,0-3.16.78-3.96,2.35l-3.21-1.83c1.44-2.72,3.92-4.08,7.45-4.08,2.13,0,3.88.55,5.25,1.66s2.06,2.91,2.06,5.39v6.4c0,1.82.1,3.07.31,3.77h-4.24ZM96.53,25.16h-3.83c-.84,0-1.5.19-1.97.58-.47.39-.7.92-.7,1.6s.24,1.23.73,1.61,1.18.58,2.06.58c1.09,0,1.97-.33,2.66-.99.69-.66,1.04-1.68,1.04-3.06v-.33Z"/>
    <path class="cls-3" d="M104.41,32.39V7.23h4.41v14.95l6.17-6.5h5.49l-7.25,7.65,6.81,9.06h-5.36l-4.34-6.04-1.51,1.63v4.41h-4.41Z"/>
    <path class="cls-3" d="M137.3,25.59h-12.6c.13,1.12.59,1.98,1.37,2.59.78.61,1.75.91,2.89.91,1.88,0,3.22-.79,4.03-2.38l3.63,1.45c-.6,1.46-1.59,2.6-2.97,3.44-1.38.83-2.94,1.25-4.7,1.25-2.48,0-4.5-.81-6.05-2.43-1.56-1.62-2.34-3.74-2.34-6.36s.78-4.77,2.34-6.41c1.56-1.64,3.6-2.46,6.12-2.46s4.48.81,5.99,2.43,2.28,3.76,2.28,6.44v1.55ZM124.78,22.56h8.04c-.08-1.22-.46-2.14-1.13-2.78-.68-.64-1.59-.95-2.73-.95s-2.07.32-2.79.96c-.72.64-1.18,1.56-1.39,2.77Z"/>
    <path class="cls-3" d="M181.98,7.71l-7.5,24.68h-4.49l-5.05-16.51-5.21,16.51h-4.49l-7.4-24.68h5.05l4.64,16.74,4.88-16.74h5.1l4.74,16.81,4.82-16.81h4.92Z"/>
    <path class="cls-3" d="M190.72,15.23c2.58,0,4.67.82,6.29,2.45,1.62,1.63,2.43,3.74,2.43,6.33s-.81,4.7-2.43,6.34c-1.62,1.64-3.71,2.46-6.29,2.46s-4.71-.82-6.32-2.46c-1.62-1.64-2.43-3.75-2.43-6.34s.81-4.7,2.43-6.33c1.62-1.63,3.72-2.45,6.32-2.45ZM190.72,28.86c1.28,0,2.32-.45,3.12-1.35.79-.9,1.19-2.07,1.19-3.5s-.4-2.6-1.19-3.5-1.83-1.35-3.12-1.35-2.34.45-3.12,1.35-1.18,2.07-1.18,3.5.39,2.6,1.18,3.5c.79.9,1.83,1.35,3.12,1.35Z"/>
    <path class="cls-3" d="M211.3,15.46c.61,0,1.27.08,1.96.23v4.05c-.6-.15-1.23-.23-1.89-.23-1.41,0-2.51.44-3.28,1.32-.77.88-1.16,2.1-1.16,3.67v7.91h-4.44V15.72h4.08l.23,1.92c.34-.7.92-1.24,1.73-1.62.81-.38,1.74-.57,2.78-.57Z"/>
    <path class="cls-3" d="M228.51,32.39c-.08-.34-.17-1.02-.28-2.06-.54.79-1.29,1.4-2.27,1.84s-2.04.66-3.21.66c-2.5,0-4.52-.77-6.07-2.31-1.54-1.54-2.32-3.7-2.32-6.49s.8-4.78,2.39-6.41c1.6-1.63,3.63-2.45,6.09-2.45,1.09,0,2.11.2,3.06.59.95.39,1.71.95,2.25,1.68V7.23h4.39v20.85c0,.66.03,1.47.1,2.45.07,1.01.14,1.63.23,1.86h-4.37ZM228.04,24.01c0-1.47-.43-2.65-1.28-3.53-.85-.88-1.97-1.32-3.34-1.32s-2.47.44-3.32,1.32c-.85.88-1.28,2.06-1.28,3.53s.43,2.63,1.28,3.52c.86.89,1.96,1.33,3.32,1.33s2.48-.44,3.34-1.33c.86-.89,1.28-2.06,1.28-3.52Z"/>
    <path class="cls-3" d="M263.25,15.97c-.42-1.35-1.16-2.39-2.24-3.12s-2.35-1.09-3.83-1.09c-2.19,0-3.94.75-5.25,2.26s-1.96,3.51-1.96,6.01.66,4.54,1.97,6.03,3.05,2.23,5.2,2.23c1.51,0,2.86-.38,4.04-1.13,1.18-.75,2-1.73,2.46-2.95l4.37,1.89c-.83,2.12-2.25,3.77-4.24,4.95-1.94,1.17-4.16,1.76-6.66,1.76-3.58,0-6.48-1.16-8.68-3.49-2.2-2.33-3.31-5.4-3.31-9.22,0-2.52.5-4.75,1.51-6.7,1.01-1.95,2.43-3.45,4.25-4.52,1.83-1.07,3.92-1.6,6.29-1.6,2.65,0,4.9.65,6.74,1.96,1.86,1.33,3.1,3.06,3.7,5.21l-4.37,1.53Z"/>
    <path class="cls-3" d="M279.03,15.23c2.58,0,4.67.82,6.29,2.45,1.62,1.63,2.43,3.74,2.43,6.33s-.81,4.7-2.43,6.34c-1.62,1.64-3.71,2.46-6.29,2.46s-4.71-.82-6.32-2.46c-1.62-1.64-2.43-3.75-2.43-6.34s.81-4.7,2.43-6.33c1.62-1.63,3.72-2.45,6.32-2.45ZM279.03,28.86c1.28,0,2.32-.45,3.12-1.35.79-.9,1.19-2.07,1.19-3.5s-.4-2.6-1.19-3.5-1.83-1.35-3.12-1.35-2.34.45-3.12,1.35-1.18,2.07-1.18,3.5.39,2.6,1.18,3.5c.79.9,1.83,1.35,3.12,1.35Z"/>
    <path class="cls-3" d="M290.82,7.23h4.41v25.16h-4.41V7.23Z"/>
    <path class="cls-3" d="M298.96,7.23h4.41v25.16h-4.41V7.23Z"/>
    <path class="cls-3" d="M322.99,25.59h-12.6c.13,1.12.59,1.98,1.37,2.59.78.61,1.75.91,2.89.91,1.88,0,3.22-.79,4.03-2.38l3.63,1.45c-.6,1.46-1.59,2.6-2.97,3.44s-2.94,1.25-4.7,1.25c-2.48,0-4.5-.81-6.05-2.43s-2.33-3.74-2.33-6.36.78-4.77,2.33-6.41c1.56-1.64,3.6-2.46,6.12-2.46s4.47.81,5.99,2.43c1.52,1.62,2.28,3.76,2.28,6.44v1.55ZM310.48,22.56h8.04c-.08-1.22-.46-2.14-1.13-2.78-.68-.64-1.59-.95-2.73-.95s-2.07.32-2.79.96c-.72.64-1.18,1.56-1.39,2.77Z"/>
    <path class="cls-3" d="M333.84,15.18c1.92,0,3.58.48,4.97,1.43,1.4.95,2.33,2.22,2.8,3.8l-3.77,1.51c-.27-.83-.77-1.5-1.49-2.01-.72-.5-1.54-.76-2.46-.76-1.33,0-2.37.44-3.13,1.32-.76.88-1.14,2.07-1.14,3.56s.39,2.67,1.16,3.53c.77.86,1.81,1.29,3.12,1.29.94,0,1.78-.24,2.5-.72s1.23-1.13,1.51-1.94l3.7,1.38c-.54,1.61-1.51,2.89-2.93,3.84-1.42.95-3.04,1.42-4.88,1.42-2.55,0-4.62-.81-6.21-2.43s-2.38-3.74-2.38-6.36.79-4.77,2.38-6.41c1.59-1.64,3.67-2.46,6.23-2.46Z"/>
    <path class="cls-3" d="M361.01,32.39h-4.41v-13.07h-5.87v13.07h-4.34v-13.07h-3.19v-3.63h3.19v-5.18h4.34v5.18h10.28v16.71ZM356.19,10c0-.73.26-1.36.77-1.87s1.15-.76,1.89-.76,1.34.25,1.86.76c.51.51.77,1.13.77,1.87s-.25,1.38-.76,1.89c-.51.52-1.13.77-1.87.77s-1.38-.25-1.89-.76-.77-1.14-.77-1.9Z"/>
    <path class="cls-3" d="M381.48,15.69l-6.94,16.71h-4.34l-6.64-16.71h4.75l4.18,11.5,4.46-11.5h4.54Z"/>
    <path class="cls-3" d="M398.88,25.59h-12.6c.13,1.12.59,1.98,1.37,2.59.78.61,1.75.91,2.89.91,1.88,0,3.22-.79,4.03-2.38l3.63,1.45c-.6,1.46-1.59,2.6-2.97,3.44s-2.94,1.25-4.7,1.25c-2.48,0-4.5-.81-6.05-2.43s-2.33-3.74-2.33-6.36.78-4.77,2.33-6.41c1.56-1.64,3.6-2.46,6.12-2.46s4.47.81,5.99,2.43c1.52,1.62,2.28,3.76,2.28,6.44v1.55ZM386.37,22.56h8.04c-.08-1.22-.46-2.14-1.13-2.78-.68-.64-1.59-.95-2.73-.95s-2.07.32-2.79.96c-.72.64-1.18,1.56-1.39,2.77Z"/>
  </g>
  <g class="cls-6">
    <g>
      <path class="cls-1" d="M40.33,37.81c0,1.39-1.13,2.52-2.52,2.52H2.52c-1.39,0-2.52-1.13-2.52-2.52v-15.12c0-1.39.8-3.32,1.78-4.3L18.38,1.78c.98-.98,2.58-.98,3.56,0l16.6,16.6c.98.98,1.78,2.92,1.78,4.3v15.12h0Z"/>
      <g class="cls-4">
        <g>
          <circle class="cls-5" cx="20.13" cy="25.45" r="3.78"/>
          <circle class="cls-5" cx="16.67" cy="29.01" r="2.52"/>
          <circle class="cls-5" cx="13.18" cy="32.45" r="1.68"/>
          <circle class="cls-5" cx="13.18" cy="18.45" r="1.68"/>
          <circle class="cls-5" cx="27.18" cy="18.45" r="1.68"/>
          <circle class="cls-5" cx="27.1" cy="32.45" r="1.68"/>
          <circle class="cls-5" cx="16.62" cy="36.01" r="1.26"/>
          <path class="cls-5" d="M9.5,27.63c.7,0,1.26.56,1.26,1.26s-.56,1.26-1.26,1.26-1.26-.56-1.26-1.26.56-1.26,1.26-1.26Z"/>
          <circle class="cls-5" cx="23.5" cy="14.89" r="1.26"/>
          <circle class="cls-5" cx="30.62" cy="22.01" r="1.26"/>
          <circle class="cls-5" cx="16.67" cy="21.89" r="2.52"/>
          <circle class="cls-5" cx="13.1" cy="25.45" r="2.1"/>
          <circle class="cls-5" cx="20.1" cy="32.45" r="2.1"/>
          <circle class="cls-5" cx="27.1" cy="25.45" r="2.1"/>
          <circle class="cls-5" cx="20.1" cy="18.45" r="2.1"/>
          <circle class="cls-5" cx="23.79" cy="21.89" r="2.52"/>
          <circle class="cls-5" cx="23.79" cy="29.01" r="2.52"/>
          <circle class="cls-5" cx="30.62" cy="28.89" r="1.26"/>
          <circle class="cls-5" cx="23.5" cy="36.01" r="1.26"/>
          <circle class="cls-5" cx="9.5" cy="22.01" r="1.26"/>
          <circle class="cls-5" cx="10.18" cy="15.5" r=".84"/>
          <circle class="cls-5" cx="30.13" cy="35.44" r=".84"/>
          <circle class="cls-5" cx="30.13" cy="15.5" r=".84"/>
          <circle class="cls-5" cx="10.27" cy="35.43" r=".84"/>
          <circle class="cls-5" cx="16.62" cy="14.89" r="1.26"/>
          <circle class="cls-5" cx="6.05" cy="25.47" r=".84"/>
          <circle class="cls-5" cx="34.26" cy="25.47" r=".84"/>
          <circle class="cls-5" cx="20.15" cy="11.37" r=".84"/>
        </g>
      </g>
    </g>
  </g>
</svg>